# File created by Blade
# Date/Time:  Thu Jan 22 19:49:01 2015
# Frame Rate: 120.000 fps
#------------------------------------------------------
:FULLY-SPECIFIED
:DEGREES
2648
root -1.957726 3.119796 -9.449215 -28.255620 -14.347613 0.314315
RightUpLeg -82.288149 33.338603 52.356709
RightLeg 112.475836 -0.000000 -0.000000
RightFoot 15.812581 -7.443724 -12.356629
RightToeBase 2.805593 -0.000000 -0.000000
LeftUpLeg -59.875092 5.296461 9.007835
LeftLeg 5.123271 -0.000000 -0.000000
LeftFoot 21.463070 2.617207 -8.132396
LeftToeBase 1.031003 -0.000000 -0.000000
Spine 53.366357 -44.472192 -33.796179
RightShoulder -21.601547 -20.201197 -13.383485
RightArm 14.725935 -41.906016 75.448211
RightForeArm 10.805720 -0.000000 27.558813
RightHand 2.385240 -0.000000 -6.532191
RightHandThumb1 -24.326973 -0.000000 -32.862282
LeftShoulder 3.228670 -20.172704 30.159414
LeftArm 69.512049 63.693956 -12.077693
LeftForeArm 35.685108 -0.000000 64.964247
LeftHand 12.688177 -0.000000 -6.853417
LeftHandThumb1 -26.253704 0.000000 33.147579
Head 7.533634 -55.298488 -9.250624
2649
root -1.955666 3.121404 -9.454207 -28.433272 -14.304800 0.381267
RightUpLeg -82.251355 33.347802 52.238196
RightLeg 112.486172 -0.000000 -0.000000
RightFoot 15.842245 -7.469094 -12.215491
RightToeBase 2.788669 -0.000000 -0.000000
LeftUpLeg -59.674266 5.323930 8.894938
LeftLeg 5.063117 -0.000000 -0.000000
LeftFoot 21.324953 2.807408 -8.181932
LeftToeBase 1.057233 -0.000000 -0.000000
Spine 53.477042 -44.542363 -33.770735
RightShoulder -21.168096 -20.092664 -13.493563
RightArm 14.473410 -42.324549 75.395991
RightForeArm 10.872617 0.000000 27.727832
RightHand 2.542697 -0.000000 -7.674413
RightHandThumb1 -24.326973 -0.000000 -32.862282
LeftShoulder 3.131922 -20.078815 30.042179
LeftArm 69.250166 63.696485 -12.228554
LeftForeArm 35.159214 0.000000 65.414631
LeftHand 12.406156 -0.000000 -7.165496
LeftHandThumb1 -26.253704 0.000000 33.147579
Head 7.274291 -55.400736 -9.134543
2650
root -1.955444 3.123671 -9.459740 -28.620362 -14.287465 0.474489
RightUpLeg -82.190694 33.390809 52.111236
RightLeg 112.481497 -0.000000 -0.000000
RightFoot 15.874546 -7.501207 -12.018923
RightToeBase 2.822468 -0.000000 -0.000000
LeftUpLeg -59.449662 5.388003 8.778610
LeftLeg 4.990502 -0.000000 -0.000000
LeftFoot 21.162272 2.963509 -8.252333
LeftToeBase 0.987132 -0.000000 -0.000000
Spine 53.544018 -44.556514 -33.747707
RightShoulder -20.802661 -20.018166 -13.708324
RightArm 14.098801 -42.759757 75.426042
RightForeArm 11.069523 -0.000000 28.124135
RightHand 2.633784 -0.000000 -8.659119
RightHandThumb1 -24.326973 -0.000000 -32.862282
LeftShoulder 3.137341 -19.997172 29.911682
LeftArm 69.101414 63.809925 -12.201802
LeftForeArm 35.370782 0.000000 65.723846
LeftHand 12.169560 -0.000000 -6.245813
LeftHandThumb1 -26.253704 0.000000 33.147579
Head 7.074664 -55.465075 -8.990226
2651
root -1.948590 3.125867 -9.464800 -28.795800 -14.261519 0.604264
RightUpLeg -82.178153 33.493680 51.897345
RightLeg 112.503521 -0.000000 -0.000000
RightFoot 15.872003 -7.515453 -11.764168
RightToeBase 2.909178 -0.000000 -0.000000
LeftUpLeg -59.231935 5.443118 8.631759
LeftLeg 4.897166 -0.000000 -0.000000
LeftFoot 21.034051 3.062001 -8.196129
LeftToeBase 0.992732 -0.000000 -0.000000
Spine 53.655221 -44.617212 -33.810497
RightShoulder -20.470939 -20.139897 -13.959168
RightArm 13.898357 -42.985801 75.335173
RightForeArm 11.429760 -0.000000 28.723826
RightHand 2.833075 -0.000000 -8.360911
RightHandThumb1 -24.326973 -0.000000 -32.862282
LeftShoulder 3.015677 -19.885978 29.788600
LeftArm 68.945867 63.845248 -12.173634
LeftForeArm 34.915320 -0.000000 66.203361
LeftHand 11.590363 0.000000 -6.236365
LeftHandThumb1 -26.253704 0.000000 33.147579
Head 6.824737 -55.511828 -8.810510
2652
root -1.945620 3.131635 -9.472930 -28.944343 -14.270547 0.714958
RightUpLeg -82.107224 33.530186 51.787591
RightLeg 112.495714 -0.000000 -0.000000
RightFoot 15.900677 -7.521270 -11.645242
RightToeBase 2.967099 -0.000000 -0.000000
LeftUpLeg -59.022021 5.530161 8.521411
LeftLeg 4.794166 -0.000000 -0.000000
LeftFoot 20.883931 3.160356 -8.214274
LeftToeBase 0.915166 -0.000000 -0.000000
Spine 53.726998 -44.614628 -33.789865
RightShoulder -20.318424 -20.250562 -14.146054
RightArm 13.735727 -43.209758 75.150166
RightForeArm 11.847349 -0.000000 29.389251
RightHand 2.919651 -0.000000 -7.895731
RightHandThumb1 -24.326973 -0.000000 -32.862282
LeftShoulder 2.963593 -19.818966 29.703648
LeftArm 68.847493 63.947479 -12.164262
LeftForeArm 34.864979 -0.000000 66.465506
LeftHand 11.268090 -0.000000 -5.442613
LeftHandThumb1 -26.253704 0.000000 33.147579
Head 6.454425 -55.586977 -8.426489
2653
root -1.943169 3.140938 -9.481650 -29.104396 -14.274121 0.805302
RightUpLeg -82.051301 33.581975 51.650719
RightLeg 112.485090 -0.000000 -0.000000
RightFoot 15.948902 -7.526588 -11.414483
RightToeBase 2.982602 -0.000000 -0.000000
LeftUpLeg -58.797437 5.600503 8.422350
LeftLeg 4.696978 -0.000000 -0.000000
LeftFoot 20.709742 3.274412 -8.324917
LeftToeBase 0.951203 -0.000000 -0.000000
Spine 53.906005 -44.646225 -33.887076
RightShoulder -20.140846 -20.408797 -14.310583
RightArm 13.751893 -43.373708 74.822349
RightForeArm 12.166845 -0.000000 30.021759
RightHand 2.887681 -0.000000 -7.069942
RightHandThumb1 -24.326973 -0.000000 -32.862282
LeftShoulder 2.878763 -19.714364 29.610362
LeftArm 68.224556 63.898317 -12.644133
LeftForeArm 33.693836 0.000000 66.926232
LeftHand 11.184485 -0.000000 -6.444110
LeftHandThumb1 -26.253704 0.000000 33.147579
Head 6.118408 -55.564221 -8.042267
2654
root -1.944516 3.152735 -9.491369 -29.250555 -14.277978 0.884788
RightUpLeg -81.961135 33.552597 51.587477
RightLeg 112.458444 -0.000000 -0.000000
RightFoot 16.023769 -7.499294 -11.295303
RightToeBase 3.021747 -0.000000 -0.000000
LeftUpLeg -58.577304 5.686407 8.303153
LeftLeg 4.584437 -0.000000 -0.000000
LeftFoot 20.561203 3.303047 -8.307501
LeftToeBase 0.961096 -0.000000 -0.000000
Spine 54.041173 -44.664156 -33.952608
RightShoulder -20.054978 -20.462615 -14.422758
RightArm 13.739397 -43.570308 74.443927
RightForeArm 12.394309 0.000000 30.656483
RightHand 2.604192 -0.000000 -6.178680
RightHandThumb1 -24.326973 -0.000000 -32.862282
LeftShoulder 2.939432 -19.703983 29.467568
LeftArm 67.627821 64.045528 -13.021424
LeftForeArm 33.085541 -0.000000 67.308244
LeftHand 10.825558 -0.000000 -6.320424
LeftHandThumb1 -26.253704 0.000000 33.147579
Head 5.913841 -55.580572 -7.742248
2655
root -1.949519 3.166514 -9.505358 -29.379936 -14.324001 0.954306
RightUpLeg -81.840950 33.573408 51.529843
RightLeg 112.399321 -0.000000 -0.000000
RightFoot 16.076815 -7.457396 -11.175077
RightToeBase 3.043460 -0.000000 -0.000000
LeftUpLeg -58.362823 5.815853 8.216041
LeftLeg 4.464814 -0.000000 -0.000000
LeftFoot 20.402069 3.284719 -8.311283
LeftToeBase 1.038709 -0.000000 -0.000000
Spine 54.201256 -44.677146 -34.079442
RightShoulder -19.918975 -20.518256 -14.474541
RightArm 13.975297 -43.866682 73.888402
RightForeArm 12.634051 -0.000000 31.068353
RightHand 2.438136 -0.000000 -5.342924
RightHandThumb1 -24.326973 -0.000000 -32.862282
LeftShoulder 2.921086 -19.541973 29.367132
LeftArm 67.014328 64.038624 -13.440028
LeftForeArm 32.192813 -0.000000 67.616383
LeftHand 10.727492 -0.000000 -6.516562
LeftHandThumb1 -26.253704 0.000000 33.147579
Head 5.841463 -55.550898 -7.513741
2656
root -1.949975 3.177370 -9.518071 -29.436229 -14.365397 1.033423
RightUpLeg -81.796904 33.660079 51.433592
RightLeg 112.358712 -0.000000 -0.000000
RightFoot 16.130166 -7.449561 -11.024437
RightToeBase 3.109388 -0.000000 -0.000000
LeftUpLeg -58.230598 5.896679 8.185140
LeftLeg 4.369209 -0.000000 -0.000000
LeftFoot 20.268228 3.295090 -8.294879
LeftToeBase 0.988242 -0.000000 -0.000000
Spine 54.277006 -44.810647 -34.182554
RightShoulder -19.719023 -20.362326 -14.659174
RightArm 14.016096 -44.168586 73.505296
RightForeArm 12.919096 -0.000000 31.389234
RightHand 2.157368 -0.000000 -4.470340
RightHandThumb1 -24.326973 -0.000000 -32.862282
LeftShoulder 2.895354 -19.305823 29.208607
LeftArm 66.396769 64.007949 -13.859496
LeftForeArm 31.412901 -0.000000 67.893091
LeftHand 10.682707 -0.000000 -6.675321
LeftHandThumb1 -26.253704 0.000000 33.147579
Head 5.826543 -55.481019 -7.460730
2657
root -1.947133 3.192060 -9.532046 -29.521048 -14.422000 1.208445
RightUpLeg -81.702931 33.766284 51.295789
RightLeg 112.319692 -0.000000 -0.000000
RightFoot 16.181006 -7.456468 -10.912497
RightToeBase 3.240687 -0.000000 -0.000000
LeftUpLeg -58.035516 6.009324 8.100733
LeftLeg 4.207595 -0.000000 -0.000000
LeftFoot 20.182414 3.322759 -8.242135
LeftToeBase 0.861847 -0.000000 -0.000000
Spine 54.312290 -44.810136 -34.342343
RightShoulder -19.554984 -20.266032 -14.705127
RightArm 14.207557 -44.464688 73.003499
RightForeArm 13.260972 -0.000000 31.591080
RightHand 2.086774 0.000000 -3.604474
RightHandThumb1 -24.326973 -0.000000 -32.862282
LeftShoulder 2.926328 -19.117115 29.115499
LeftArm 65.997581 64.060542 -14.086321
LeftForeArm 30.851361 -0.000000 68.126931
LeftHand 10.340354 -0.000000 -6.342454
LeftHandThumb1 -26.253704 0.000000 33.147579
Head 5.872143 -55.478726 -7.319320
2658
root -1.945097 3.206339 -9.545754 -29.620897 -14.467944 1.361524
RightUpLeg -81.595389 33.800080 51.193469
RightLeg 112.284554 -0.000000 -0.000000
RightFoot 16.199085 -7.428360 -10.791191
RightToeBase 3.415320 -0.000000 -0.000000
LeftUpLeg -57.821011 6.086524 8.055487
LeftLeg 4.037893 -0.000000 -0.000000
LeftFoot 20.097452 3.336347 -8.139687
LeftToeBase 0.910361 -0.000000 -0.000000
Spine 54.419548 -44.834467 -34.566179
RightShoulder -19.329775 -20.088928 -14.829665
RightArm 14.324236 -44.818990 72.623349
RightForeArm 13.493392 0.000000 31.767985
RightHand 1.672787 0.000000 -2.984812
RightHandThumb1 -24.326973 -0.000000 -32.862282
LeftShoulder 2.951953 -18.961788 28.978084
LeftArm 65.336636 64.066479 -14.453823
LeftForeArm 29.971307 0.000000 68.531077
LeftHand 10.163492 -0.000000 -6.825374
LeftHandThumb1 -26.253704 0.000000 33.147579
Head 5.938231 -55.476203 -7.178008
2659
root -1.948165 3.226433 -9.559909 -29.732028 -14.541429 1.494553
RightUpLeg -81.449863 33.812430 51.134120
RightLeg 112.233407 -0.000000 -0.000000
RightFoot 16.258741 -7.358994 -10.680954
RightToeBase 3.491019 -0.000000 -0.000000
LeftUpLeg -57.566868 6.186692 8.041297
LeftLeg 3.840028 -0.000000 -0.000000
LeftFoot 20.028946 3.351778 -8.144801
LeftToeBase 1.004737 -0.000000 -0.000000
Spine 54.531974 -44.783919 -34.754170
RightShoulder -19.140940 -19.897050 -14.895782
RightArm 14.459839 -45.173031 72.246458
RightForeArm 13.761795 -0.000000 31.847141
RightHand 1.448176 -0.000000 -2.201264
RightHandThumb1 -24.326973 -0.000000 -32.862282
LeftShoulder 2.966597 -18.841886 28.881037
LeftArm 64.986850 64.107550 -14.655001
LeftForeArm 29.526060 0.000000 68.677087
LeftHand 10.333217 -0.000000 -6.924851
LeftHandThumb1 -26.253704 0.000000 33.147579
Head 6.010345 -55.516141 -6.995507
